<?xml version="1.0" encoding="utf-8"?>
<!-- Svg Vector Icons : http://www.onlinewebfonts.com/icon -->
<!DOCTYPE svg PUBLIC "-//W3C//DTD SVG 1.1//EN" "http://www.w3.org/Graphics/SVG/1.1/DTD/svg11.dtd">
<svg version="1.1" xmlns="http://www.w3.org/2000/svg" xmlns:xlink="http://www.w3.org/1999/xlink" x="0px" y="0px" viewBox="0 0 1000 1000" enable-background="new 0 0 1000 1000" xml:space="preserve">
<metadata> Svg Vector Icons : http://www.onlinewebfonts.com/icon </metadata>
<g><g transform="translate(0.000000,511.000000) scale(0.100000,-0.100000)"><path d="M1195,4972.7c-511.7-109.3-953.4-555.4-1060.6-1069.3c-45.9-223.1-45.9-2116.8,0-2339.8c83.1-398,371.8-769.8,732.6-949.1c234-113.7,426.4-155.3,745.7-155.3h253.7l177.1-726c98.4-400.2,330.2-1342.7,516.1-2094.9l334.6-1366.7l-1285.8-10.9c-1255.2-10.9-1285.8-10.9-1344.9-56.8c-142.1-105-150.9-133.4-157.4-522.6c-6.6-358.6-6.6-360.8,48.1-415.5l54.7-54.7H5000h4791.2l54.7,54.7c54.7,54.7,54.7,56.8,48.1,415.5c-6.6,389.2-15.3,417.7-157.5,522.6c-59,45.9-85.3,45.9-1344.9,52.5l-1285.8,4.4l524.8,2099.3l522.7,2099.3h244.9c310.5,0,502.9,41.5,734.7,155.3c360.8,179.3,649.5,551.1,732.6,949.1c45.9,223.1,45.9,2116.8,0,2339.8c-109.3,520.4-551.1,962.2-1071.5,1071.5C8571,5020.8,1413.7,5020.8,1195,4972.7z M8745.9,4625c378.3-98.4,671.3-389.2,769.7-765.4c48.1-190.3,48.1-2062.1,0-2252.4c-98.4-376.1-391.4-667-769.7-765.4c-109.3-28.4-603.5-32.8-3726.3-32.8c-2357.3,0-3641,8.7-3717.5,21.9C1015.7,885.6,703,1117.4,574,1373.3c-118.1,231.8-122.5,282.1-122.5,1340.5c0,555.4,8.7,1025.6,21.9,1093.4c72.2,391.4,426.4,752.2,811.3,826.6c52.5,10.9,1725.4,19.7,3715.3,21.9C8144.6,4657.8,8636.6,4653.4,8745.9,4625z M3338.1,164c0-286.5,2.2-299.6,54.7-349.9c50.3-52.5,65.6-54.7,304-54.7h251.5l6.6-588.3c6.6-555.4,8.7-592.6,52.5-649.5c24.1-32.8,72.2-80.9,105-105c59-43.7,85.3-45.9,887.8-45.9s828.8,2.2,887.8,45.9c120.3,89.7,150.9,150.9,159.6,341.2l6.6,174.9l179.3-13.1c594.8-43.7,653.8-41.5,717.3,6.6c74.3,59.1,148.7,214.3,148.7,308.3s-74.4,249.3-148.7,308.3c-63.4,48.1-122.5,50.3-719.5,6.6l-181.5-13.1v111.5v111.5h251.5c240.5,0,255.9,2.2,306.2,54.7c52.5,50.3,54.7,63.4,54.7,349.9v295.2h566.4h566.4l-524.8-2099.3L6745-3739.4H4997.8c-962.2,0-1747.2,6.6-1747.2,13.1c0,15.3-1003.7,4117.7-1016.9,4159.2c-6.6,19.7,111.5,26.2,546.7,26.2h557.6V164z M6312.1,284.2V109.3H5000H3687.9v174.9v174.9H5000h1312.1V284.2z M5699.8-356.5v-115.9l-273.3-21.9c-269-21.9-275.5-24-345.5-91.8c-59.1-61.2-70-85.3-70-179.3s10.9-118.1,70-179.3c70-67.8,76.5-70,345.5-91.9l273.3-21.9v-115.9v-115.9H5000h-699.8v524.8v524.8H5000h699.8V-356.5z M6891.6-656.1c17.5-35,32.8-83.1,32.8-109.3c0-59-59.1-174.9-91.9-174.9c-214.3,0-1609.5,98.4-1629.1,113.7c-37.2,30.6-35,94,0,122.5c17.5,15.3,325.8,41.6,739.1,65.6C6933.1-579.5,6852.2-577.3,6891.6-656.1z M9548.5-4264.2v-174.9H5000H451.5v174.9v174.9H5000h4548.5V-4264.2z"/><path d="M4693.9,3923c-511.7-109.3-953.4-555.4-1060.6-1069.3C3425.5,1860.9,4302.4,984,5295.2,1191.8c520.4,109.3,962.2,551.1,1071.5,1071.5C6574.5,3260.4,5691,4137.3,4693.9,3923z M5251.5,3575.3c559.8-146.5,907.5-719.4,765.4-1268.3c-135.6-518.3-636.4-859.4-1156.8-782.9c-463.6,65.6-828.8,430.8-894.4,894.4C3860.7,3140.2,4547.3,3756.8,5251.5,3575.3z"/><path d="M4936.6,3271.4c-41.5-48.1-21.9-275.5,26.2-306.1c70-43.7,113.7,8.7,120.3,148.7c6.6,133.4-17.5,188.1-83.1,188.1C4978.1,3302,4949.7,3288.9,4936.6,3271.4z"/><path d="M4453.3,3061.4c-19.7-37.2-8.8-59,67.8-142.1c91.9-100.6,142.1-120.3,190.3-72.2c43.7,43.7,28.4,94-56.8,177.1C4562.7,3113.9,4488.3,3127.1,4453.3,3061.4z"/><path d="M5240.6,2919.3c-126.8-129-201.2-185.9-236.2-185.9c-70,0-179.3-113.7-179.3-185.9c0-78.7,89.6-164,174.9-164c85.3,0,174.9,85.3,174.9,166.2c0,45.9,45.9,107.1,199,262.4c174.9,179.3,194.6,207.7,172.7,247.1C5503,3144.5,5435.2,3113.9,5240.6,2919.3z"/><path d="M4282.8,2619.7c-35-35-32.8-94,4.4-124.6c48.1-41.5,275.5-21.9,306.1,26.2c17.5,26.2,17.5,48.1,0,76.5C4562.7,2643.8,4326.5,2663.4,4282.8,2619.7z"/><path d="M5419.9,2619.7c-35-35-32.8-94,4.4-124.6c48.1-41.5,275.5-21.9,306.1,26.2c17.5,26.2,17.5,48.1,0,76.5C5699.8,2643.8,5463.6,2663.4,5419.9,2619.7z"/><path d="M4521.1,2199.9c-83.1-83.1-91.8-100.6-70-142.1c39.4-70,113.7-56.9,205.6,37.2c85.3,87.5,98.4,131.2,54.7,174.9C4665.4,2315.8,4617.3,2298.3,4521.1,2199.9z"/><path d="M5288.7,2269.8c-43.7-43.7-28.4-94,56.8-177.1c91.8-89.7,166.2-102.8,201.2-37.2c19.7,37.2,8.7,59-67.8,142.1C5387.1,2298.3,5336.8,2317.9,5288.7,2269.8z"/><path d="M7154,2853.7c-52.5-50.3-54.7-67.8-54.7-295.2c0-227.4,2.2-244.9,54.7-295.2c50.3-52.5,67.8-54.7,295.2-54.7c227.4,0,244.9,2.2,295.2,54.7c52.5,50.3,54.7,67.8,54.7,295.2c0,227.4-2.2,244.9-54.7,295.2c-50.3,52.5-67.8,54.7-295.2,54.7C7221.8,2908.4,7204.3,2906.2,7154,2853.7z M7624.1,2471v-87.5h-174.9h-174.9v87.5v87.5h174.9h174.9V2471z"/><path d="M8203.6,2853.7c-52.5-50.3-54.7-67.8-54.7-295.2c0-227.4,2.2-244.9,54.7-295.2c50.3-52.5,67.8-54.7,295.2-54.7c227.4,0,244.9,2.2,295.2,54.7c52.5,50.3,54.7,67.8,54.7,295.2c0,227.4-2.2,244.9-54.7,295.2c-50.3,52.5-67.8,54.7-295.2,54.7C8271.4,2908.4,8253.9,2906.2,8203.6,2853.7z M8673.8,2646v-87.5h-174.9h-174.9v87.5v87.5h174.9h174.9V2646z"/><path d="M4868.8-2132.1c-172.8-205.6-223.1-306.2-212.1-424.2c10.9-102.8,59-181.5,155.2-251.5c85.3-63.4,290.9-63.4,376.2,0c155.3,115.9,199,271.2,118.1,430.8c-43.7,87.5-266.8,367.4-304,380.5C4995.6-1992.2,4934.4-2055.6,4868.8-2132.1z"/></g></g>
</svg>