<svg height="480pt" viewBox="-24 0 480 480.00006" width="480pt" xmlns="http://www.w3.org/2000/svg"><path d="m423.972656 40c0 17.671875-14.328125 32-32 32s-32-14.328125-32-32 14.328125-32 32-32 32 14.328125 32 32zm0 0" fill="#ebebe8"/><path d="m327.972656 152h-272c0-79.527344 64.472656-144 144-144h192v32l-41.441406 25.894531c-14.03125 8.773438-22.558594 24.15625-22.558594 40.707031zm0 0" fill="#dd4a43"/><path d="m327.972656 292.945312v-108.945312h-272v108.945312" fill="#fec9a3"/><path d="m55.972656 200h272v16h-272zm0 0" fill="#fec093"/><path d="m167.269531 280h-63.296875c-3.941406.019531-7.882812.285156-11.792968.800781-.972657.121094-1.941407.289063-2.910157.4375-3.136719.488281-6.230469 1.113281-9.257812 1.898438-.695313.175781-1.382813.34375-2.070313.527343-7.679687 2.175782-15.058594 5.292969-21.96875 9.28125-37.632812 21.703126-55.988281 65.988282-44.738281 107.953126 11.25 41.964843 49.292969 71.132812 92.738281 71.101562h272c26.511719 0 48-21.492188 48-48v-24c0 13.253906-10.746094 24-24 24s-24-10.746094-24-24v-24c-.007812-34.273438-18.308594-65.9375-48-83.054688-6.910156-3.988281-14.289062-7.105468-21.96875-9.28125-.6875-.183593-1.375-.351562-2.070312-.527343-3.023438-.800781-6.121094-1.410157-9.257813-1.898438-.964843-.148437-1.933593-.316406-2.910156-.4375-3.910156-.515625-7.847656-.78125-11.792969-.800781h-63.296875" fill="#ebebe8"/><path d="m399.972656 424c-13.253906 0-24-10.746094-24-24v-24c-.019531-23.675781-8.863281-46.492188-24.800781-64-76.976563 111.953125-241.597656 117.425781-330.78125 111.128906 16.992187 30.1875 48.941406 48.867188 83.582031 48.871094h272c26.511719 0 48-21.492188 48-48v-24c0 13.253906-10.746094 24-24 24zm0 0" fill="#e3e3e1"/><path d="m151.972656 336h80v8c0 22.089844-17.90625 40-40 40-22.089844 0-40-17.910156-40-40zm0 0" fill="#dd4a43"/><path d="m100.292969 122.289062-15.328125-4.578124c5.851562-19.496094 16.554687-37.1875 31.105468-51.421876l11.199219 11.421876c-12.617187 12.339843-21.898437 27.675781-26.976562 44.578124zm40.257812-55.601562-9.152343-13.085938c5.425781-3.804687 11.15625-7.152343 17.132812-10.007812l6.882812 14.445312c-5.183593 2.476563-10.152343 5.367188-14.863281 8.648438zm0 0" fill="#e66b65"/><path d="m335.972656 208h-8v80h8c22.09375 0 40-17.910156 40-40s-17.90625-40-40-40zm0 0" fill="#feb784"/><path d="m7.972656 248c0 22.089844 17.910156 40 40 40h8v-80h-8c-22.089844 0-40 17.910156-40 40zm0 0" fill="#feb784"/><path d="m135.972656 240c0 8.835938-7.164062 16-16 16-8.835937 0-16-7.164062-16-16s7.164063-16 16-16c8.835938 0 16 7.164062 16 16zm0 0" fill="#7a4321"/><path d="m279.972656 240c0 8.835938-7.164062 16-16 16-8.835937 0-16-7.164062-16-16s7.164063-16 16-16c8.835938 0 16 7.164062 16 16zm0 0" fill="#7a4321"/><path d="m191.972656 304c-8.566406 0-16.523437-4.433594-21.03125-11.722656-4.503906-7.289063-4.914062-16.390625-1.082031-24.054688l22.113281-44.222656 22.113282 44.222656c3.832031 7.664063 3.421874 16.765625-1.082032 24.054688-4.503906 7.289062-12.460937 11.722656-21.03125 11.722656zm0 0" fill="#dd4a43"/><path d="m47.972656 152h288c13.253906 0 24 10.746094 24 24s-10.746094 24-24 24h-288c-13.253906 0-24-10.746094-24-24s10.746094-24 24-24zm0 0" fill="#ebebe8"/><path d="m241.574219 152h86.398437v-45.390625c-.003906-16.554687 8.523438-31.941406 22.558594-40.714844l41.441406-25.894531v-14.207031c-114.984375 15.648437-143.671875 84.671875-150.398437 126.207031zm0 0" fill="#d13e37"/><path d="m423.972656 40c0 17.671875-14.328125 32-32 32s-32-14.328125-32-32 14.328125-32 32-32 32 14.328125 32 32zm0 0" fill="#ebebe8"/><path d="m231.972656 328h-80c-4.417968 0-8 3.582031-8 8v8c0 26.507812 21.492188 48 48 48 26.511719 0 48-21.492188 48-48v-8c0-4.417969-3.582031-8-8-8zm-40 48c-17.671875 0-32-14.328125-32-32h64c0 17.671875-14.328125 32-32 32zm0 0"/><path d="m354.773438 72.679688 8.296874-5.183594c12.554688 13.191406 32.4375 16.222656 48.351563 7.375s23.832031-27.339844 19.253906-44.964844-20.492187-29.921875-38.703125-29.90625h-192c-80.75.132812-147.3125 63.363281-151.589844 144h-.410156c-14.285156-.019531-26.847656 9.457031-30.753906 23.199219-3.902344 13.742187 1.792969 28.40625 13.953125 35.90625-20.121094 7.519531-32.789063 27.503906-31 48.910156s17.597656 39.011719 38.6875 43.089844c-34.394531 27.605469-47.609375 73.917969-32.960937 115.519531 14.648437 41.601562 53.96875 69.414062 98.074218 69.375h272c30.914063-.035156 55.964844-25.085938 56-56v-24c0-4.417969-3.582031-8-8-8-4.417968 0-8 3.582031-8 8 0 8.835938-7.164062 16-16 16-8.835937 0-16-7.164062-16-16v-24c-.09375-31.445312-14.375-61.167969-38.863281-80.894531 21.09375-4.078125 36.898437-21.683594 38.6875-43.089844s-10.875-41.390625-31-48.910156c12.164063-7.503907 17.863281-22.171875 13.949219-35.917969-3.914063-13.746094-16.480469-23.214844-30.773438-23.1875v-37.390625c-.046875-13.808594 7.070313-26.648437 18.800782-33.929687zm37.199218-56.679688c13.253906 0 24 10.746094 24 24s-10.746094 24-24 24-24-10.746094-24-24 10.746094-24 24-24zm-376 232c0-17.671875 14.328125-32 32-32v64c-17.671875 0-32-14.328125-32-32zm352 128v24c.003906 11.394531 6.0625 21.929688 15.914063 27.65625 9.851562 5.730469 22.007812 5.785156 31.910156.152344-1.988281 20.511718-19.214844 36.167968-39.824219 36.191406h-272c-43.847656-.128906-80.914062-32.515625-86.914062-75.953125-6.003906-43.4375 20.886718-84.664063 63.058594-96.679687l1.902343-.488282c2.777344-.71875 5.601563-1.285156 8.488281-1.734375l2.65625-.410156c3.585938-.464844 7.195313-.710937 10.808594-.734375h56.488282c3.886718 14.199219 16.792968 24.042969 31.511718 24.042969 14.722656 0 27.625-9.84375 31.511719-24.042969h56.488281c3.617188.023438 7.230469.269531 10.816406.734375l2.65625.417969c3.09375.476562 6.15625 1.109375 9.183594 1.902344l1.183594.304687c37.902344 10.699219 64.097656 45.257813 64.160156 84.640625zm-168.800781-155.574219c-1.503906-2.523437-4.222656-4.070312-7.160156-4.070312-2.933594 0-5.65625 1.546875-7.160157 4.070312l-22.109374 44.222657c-1.160157 2.339843-2.039063 4.804687-2.617188 7.351562h-56.152344c-4.28125.019531-8.554687.304688-12.800781.855469-.796875.105469-1.597656.234375-3.160156.480469-3.566407.550781-7.101563 1.285156-10.589844 2.199218l-1.6875.441406c-4 1.144532-7.925781 2.527344-11.761719 4.144532v-72.121094h256v72.121094c-3.851562-1.617188-7.792968-3.003906-11.808594-4.152344l-2.207031-.578125c-3.5625-.90625-7.164062-1.632813-10.800781-2.175781-.800781-.125-1.597656-.253906-2.398438-.359375-4.238281-.546875-8.507812-.835938-12.785156-.855469h-56.113281c-.574219-2.546875-1.453125-5.011719-2.613281-7.351562zm7.066406 67.644531c-4.679687 7.664063-14.574219 10.261719-22.414062 5.890626-7.839844-4.371094-10.828125-14.152344-6.769531-22.160157l14.917968-29.914062 14.960938 29.914062c2.609375 5.179688 2.332031 11.347657-.738282 16.269531zm161.734375-40.070312c0 17.671875-14.328125 32-32 32v-64c17.671875 0 32 14.328125 32 32zm-16-72c0 8.835938-7.164062 16-16 16h-288c-8.835937 0-16-7.164062-16-16s7.164063-16 16-16h288c8.835938 0 16 7.164062 16 16zm-32-69.390625v37.390625h-255.765625c4.324219-71.839844 63.796875-127.910156 135.765625-128h160.207032c-8.417969 10.765625-10.546876 25.171875-5.597657 37.910156l-8.320312 5.210938c-16.410157 10.195312-26.359375 28.167968-26.289063 47.488281zm0 0"/><path d="m131.398438 53.601562 9.152343 13.109376c4.707031-3.289063 9.679688-6.1875 14.863281-8.671876l-6.882812-14.445312c-5.976562 2.855469-11.707031 6.203125-17.132812 10.007812zm0 0"/><path d="m84.964844 117.710938 15.328125 4.578124c5.078125-16.902343 14.355469-32.238281 26.96875-44.578124l-11.199219-11.421876c-14.546875 14.234376-25.246094 31.929688-31.097656 51.421876zm0 0"/><path d="m135.972656 240c0 8.835938-7.164062 16-16 16-8.835937 0-16-7.164062-16-16s7.164063-16 16-16c8.835938 0 16 7.164062 16 16zm0 0"/><path d="m279.972656 240c0 8.835938-7.164062 16-16 16-8.835937 0-16-7.164062-16-16s7.164063-16 16-16c8.835938 0 16 7.164062 16 16zm0 0"/></svg>