<svg height="448pt" viewBox="-24 0 448 448.00001" width="448pt" xmlns="http://www.w3.org/2000/svg"><path d="m352 384v-24c-.0625-39.382812-26.257812-73.941406-64.160156-84.640625l-1.183594-.304687c-3.027344-.792969-6.09375-1.425782-9.183594-1.902344l-2.65625-.417969c-3.585937-.464844-7.199218-.710937-10.816406-.734375h-56.488281c-3.886719 14.199219-16.789063 24.042969-31.511719 24.042969s-27.625-9.84375-31.511719-24.042969h-56.488281c-3.613281.023438-7.222656.269531-10.808594.734375l-2.65625.410156c-2.878906.449219-5.710937 1.015625-8.488281 1.734375l-1.902344.488282c-42.296875 11.902343-69.324219 53.1875-63.308593 96.714843 6.015624 43.523438 43.226562 75.933594 87.164062 75.917969h272c20.609375-.023438 37.835938-15.679688 39.824219-36.191406-9.90625 5.632812-22.058594 5.578125-31.910157-.152344-9.851562-5.726562-15.910156-16.261719-15.914062-27.65625zm-128-56c0 26.507812-21.492188 48-48 48s-48-21.492188-48-48v-8c0-4.417969 3.582031-8 8-8h80c4.417969 0 8 3.582031 8 8zm0 0"/><path d="m400 24c0 13.253906-10.746094 24-24 24s-24-10.746094-24-24 10.746094-24 24-24 24 10.746094 24 24zm0 0"/><path d="m32 176h288c8.835938 0 16-7.164062 16-16s-7.164062-16-16-16h-288c-8.835938 0-16 7.164062-16 16s7.164062 16 16 16zm0 0"/><path d="m320 200v64c17.671875 0 32-14.328125 32-32s-14.328125-32-32-32zm0 0"/><path d="m207.886719 256h56.113281c4.28125.019531 8.554688.304688 12.800781.855469.800781.105469 1.597657.234375 2.398438.359375 3.636719.542968 7.238281 1.269531 10.800781 2.175781l2.207031.578125c4.011719 1.148438 7.949219 2.535156 11.792969 4.152344v-72.121094h-256v72.121094c3.839844-1.617188 7.777344-3 11.785156-4.144532l1.6875-.441406c3.488282-.914062 7.023438-1.648437 10.589844-2.199218 1.554688-.246094 2.351562-.375 3.160156-.480469 4.238282-.546875 8.503906-.835938 12.777344-.855469h56.113281c.578125-2.546875 1.453125-5.011719 2.613281-7.351562l22.113282-44.222657c1.503906-2.523437 4.222656-4.070312 7.160156-4.070312s5.65625 1.546875 7.160156 4.070312l22.113282 44.222657c1.160156 2.339843 2.035156 4.804687 2.613281 7.351562zm40.113281-48c8.835938 0 16 7.164062 16 16s-7.164062 16-16 16-16-7.164062-16-16 7.164062-16 16-16zm-144 32c-8.835938 0-16-7.164062-16-16s7.164062-16 16-16 16 7.164062 16 16-7.164062 16-16 16zm0 0"/><path d="m161.039062 255.800781c-3.507812 7.03125-1.648437 15.558594 4.476563 20.488281 6.121094 4.929688 14.847656 4.929688 20.96875 0 6.125-4.929687 7.984375-13.457031 4.476563-20.488281l-14.960938-29.914062zm0 0"/><path d="m176 360c17.671875 0 32-14.328125 32-32h-64c0 17.671875 14.328125 32 32 32zm0 0"/><path d="m304 90.609375c-.0625-19.324219 9.898438-37.300781 26.320312-47.488281l8.320313-5.210938c-4.957031-12.734375-2.84375-27.136718 5.566406-37.910156h-160.207031c-71.96875.0898438-131.441406 56.160156-135.769531 128h255.769531zm-219.679688 15.679687-15.328124-4.578124c5.851562-19.496094 16.554687-37.1875 31.105468-51.421876l11.199219 11.421876c-12.617187 12.339843-21.898437 27.675781-26.976563 44.578124zm40.253907-55.601562-9.148438-13.085938c5.425781-3.804687 11.15625-7.152343 17.132813-10.007812l6.882812 14.445312c-5.183594 2.476563-10.152344 5.367188-14.867187 8.648438zm0 0"/><path d="m32 264v-64c-17.671875 0-32 14.328125-32 32s14.328125 32 32 32zm0 0"/></svg>