<?xml version="1.0" encoding="utf-8"?>
<!-- Svg Vector Icons : http://www.onlinewebfonts.com/icon -->
<!DOCTYPE svg PUBLIC "-//W3C//DTD SVG 1.1//EN" "http://www.w3.org/Graphics/SVG/1.1/DTD/svg11.dtd">
<svg version="1.1" xmlns="http://www.w3.org/2000/svg" xmlns:xlink="http://www.w3.org/1999/xlink" x="0px" y="0px" viewBox="0 0 1000 1000" enable-background="new 0 0 1000 1000" xml:space="preserve">
<metadata> Svg Vector Icons : http://www.onlinewebfonts.com/icon </metadata>
<g><path d="M533,385.3c7.5-18.2-1.1-39.1-19.3-46.7c-18.2-7.5-39.1,1.1-46.7,19.3c-7.5,18.3,1.1,39,19.3,46.7C504.5,412.2,525.4,403.5,533,385.3z M704.6,835.8H604.3l-14.6-103.1c-0.3-3.4-1.4-6.6-3.1-9.7c158-38.8,275.3-181,275.3-351c0-199.9-162-362-361.8-362c-199.8,0-361.8,162.1-361.8,362c0,175.6,125.2,321.7,291.2,354.6c-0.9,2.1-1.5,4.3-1.7,6.6l-15.4,102.7H288.8c-50.2,0-99.5,34.5-110.1,77.1c-10.6,42.6,26.5,77.1,82.8,77.1h465.7c56.3,0,94.4-34.5,85.1-77.1C803,870.3,754.8,835.8,704.6,835.8z M181.7,372c0-175.6,142.7-318.5,318.3-318.5c175.5,0,318.3,142.9,318.3,318.5c0,175.5-142.8,318.3-318.3,318.3C324.4,690.3,181.7,547.5,181.7,372z M698.9,912.9H294.7c-48.8,0-80.9-12.6-71.8-28.2c9.1-15.6,51.9-28.2,95.5-28.2h360.9c43.6,0,85.4,12.7,93.5,28.2C780.8,900.3,747.7,912.9,698.9,912.9z M508.6,524.8l41.1,98.6c17.9,30.3,57.1,40.3,87.4,22.3l16.1-9.5c30.3-18,40.2-57.1,22.2-87.4l-66.8-83.3c-10.5-17.6-26-29.7-43.1-33.1c14.8-15.9,23.8-37.2,23.8-60.6h0c0-2.5-0.1-5-0.3-7.4c18.4,9.9,41.7,7.7,62.6-4.7l98.5-41.1c30.2-18,40.3-57.1,22.3-87.4l-9.5-16.1c-18-30.3-57.1-40.3-87.4-22.3l-83.3,66.8c-18.3,10.9-30.5,27.2-33.4,45c-15.7-13.8-36.3-22.1-58.8-22.1c-3.4,0-6.7,0.2-10,0.6c16-19.2,15.4-46.8,1-71.1l-41.1-98.6C431.9,83,392.8,73,362.5,91l-16.1,9.5c-30.2,18-40.2,57.2-22.2,87.4l66.8,83.4c11.8,19.7,29.8,32.5,49.4,34c-18.2,16.3-29.7,40.1-29.7,66.5c0,6.5,0.7,12.9,2,19c-18.8-12.2-43.9-10.7-66.2,2.6L248,434.4c-30.2,18-40.3,57.2-22.3,87.4l9.5,16.1c18,30.3,57.2,40.3,87.4,22.2l83.3-66.8c21.8-13,35.1-33.7,34.1-55.5c15.9,14.4,36.9,23.2,60,23.2c1.6,0,3.1,0,4.7-0.1C493.9,479.3,495.9,503.3,508.6,524.8z M500,445.3c-40.6,0-73.5-32.9-73.6-73.6c0-40.7,32.9-73.6,73.6-73.6c25.9,0,48.7,13.4,61.8,33.7c1.2,3,2.6,5.9,4.3,8.8l1.9,3.1c0,0.1,0.1,0.2,0.1,0.2c3.5,8.6,5.4,17.9,5.5,27.8h0c-0.1,26.2-13.8,49.2-34.4,62.2c-4,1.3-7.9,3.1-11.8,5.4l-2.7,1.7C517,443.8,508.7,445.3,500,445.3z"/></g>
</svg>